HIERARCHY
ROOT Hips
{
  OFFSET 40.8908 88.6266 -17.9885
  CHANNELS 6 Xposition Yposition Zposition Zrotation Xrotation Yrotation
  JOINT RightUpLeg
  {
    OFFSET -9 6.86154e-007 -3.19544e-009
    CHANNELS 6 Xposition Yposition Zposition Zrotation Xrotation Yrotation
    JOINT RightLowLeg
    {
      OFFSET 0.575 -51.4311 3.90177
      CHANNELS 6 Xposition Yposition Zposition Zrotation Xrotation Yrotation
      JOINT RightFoot
      {
        OFFSET -7.46079e-007 -43.5882 -3.90177
        CHANNELS 6 Xposition Yposition Zposition Zrotation Xrotation Yrotation
        End Site
        {
          OFFSET 4.66716e-007 -6.93413 15.0046
        }
      }
    }
  }
  JOINT Chest
  {
    OFFSET 1.23234e-007 14.8421 1.27319e-009
    CHANNELS 6 Xposition Yposition Zposition Zrotation Xrotation Yrotation
    JOINT Neck
    {
      OFFSET 0.51659 29.8236 6.51843
      CHANNELS 6 Xposition Yposition Zposition Zrotation Xrotation Yrotation
      JOINT Head
      {
        OFFSET 1.16803e-007 7.47049 6.44171e-007
        CHANNELS 6 Xposition Yposition Zposition Zrotation Xrotation Yrotation
        End Site
        {
          OFFSET -4.32676e-008 16.2908 2.16786e-007
        }
      }
    }
    JOINT RightCollar
    {
      OFFSET -6.11406 27.2248 4.23427
      CHANNELS 6 Xposition Yposition Zposition Zrotation Xrotation Yrotation
      JOINT RightUpArm
      {
        OFFSET -10.4566 2.3285 -0.910794
        CHANNELS 6 Xposition Yposition Zposition Zrotation Xrotation Yrotation
        JOINT RightLowArm
        {
          OFFSET -3.86856 -25.191 -1.74633
          CHANNELS 6 Xposition Yposition Zposition Zrotation Xrotation Yrotation
          JOINT RightHand
          {
            OFFSET -1.04759 -20.6242 1.75213
            CHANNELS 6 Xposition Yposition Zposition Zrotation Xrotation Yrotation
            End Site
            {
              OFFSET -2.03487e-006 -9.50367 -4.31372e-006
            }
          }
        }
      }
    }
    JOINT LeftCollar
    {
      OFFSET 6.64893 27.3161 3.27471
      CHANNELS 6 Xposition Yposition Zposition Zrotation Xrotation Yrotation
      JOINT LeftUpArm
      {
        OFFSET 10.8584 2.41798 -0.945791
        CHANNELS 6 Xposition Yposition Zposition Zrotation Xrotation Yrotation
        JOINT LeftLowArm
        {
          OFFSET 3.77631 -24.5904 -1.70468
          CHANNELS 6 Xposition Yposition Zposition Zrotation Xrotation Yrotation
          JOINT LeftHand
          {
            OFFSET 1.01026 -21.1231 1.74131
            CHANNELS 6 Xposition Yposition Zposition Zrotation Xrotation Yrotation
            End Site
            {
              OFFSET 1.17583e-006 -9.81266 -2.89439e-008
            }
          }
        }
      }
    }
  }
  JOINT LeftUpLeg
  {
    OFFSET 9 -3.38008e-006 -5.22997e-009
    CHANNELS 6 Xposition Yposition Zposition Zrotation Xrotation Yrotation
    JOINT LeftLowLeg
    {
      OFFSET -0.575 -51.431 3.90177
      CHANNELS 6 Xposition Yposition Zposition Zrotation Xrotation Yrotation
      JOINT LeftFoot
      {
        OFFSET 2.13082e-007 -43.5882 -3.90177
        CHANNELS 6 Xposition Yposition Zposition Zrotation Xrotation Yrotation
        End Site
        {
          OFFSET 7.44796e-007 -6.93413 15.0046
        }
      }
    }
  }
}
MOTION
Frames:	6
Frame Time:	0.0333333
40.8908 88.6266 -17.9885 0.0245813 -8.65143 -1.85657 -9 6.86154e-007 -3.19544e-009 -11.0591 -17.7435 -12.0869 0.575 -51.4311 3.90177 -13.0625 50.0507 15.6622 -7.46079e-007 -43.5882 -3.90177 -11.6067 -19.7793 -0.706144 1.23234e-007 14.8421 1.27319e-009 -0.260036 9.42909 -1.46715 0.51659 29.8236 6.51843 -3.32816 -11.5612 0.736082 1.16803e-007 7.47049 6.44171e-007 1.60602 19.4962 -0.313624 -6.11406 27.2248 4.23427 -1.96452 7.32629 3.42623 -10.4566 2.3285 -0.910794 -14.0245 -78.5497 27.5062 -3.86856 -25.191 -1.74633 -4.80342 -2.13886 72.673 -1.04759 -20.6242 1.75213 -5.28304 7.69613 -0.634534 6.64893 27.3161 3.27471 -2.94784 5.93879 -4.20517 10.8584 2.41798 -0.945791 30.4203 -72.1094 -23.2516 3.77631 -24.5904 -1.70468 9.11783 -5.00227 -37.0547 1.01026 -21.1231 1.74131 17.1059 -6.15171 2.30833 9 -3.38008e-006 -5.22997e-009 11.8548 -15.8714 10.6739 -0.575 -51.431 3.90177 -2.8536 50.4437 -12.7595 2.13082e-007 -43.5882 -3.90177 20.3997 -18.6085 1.25215 
40.9376 88.6332 -17.9811 0.0565318 -8.67034 -1.81457 -9 6.86154e-007 -3.19544e-009 -11.1252 -17.6883 -12.1217 0.575 -51.4311 3.90177 -13.0547 50.0053 15.6639 -7.46079e-007 -43.5882 -3.90177 -11.6227 -19.8029 -0.709698 1.23234e-007 14.8421 1.27319e-009 -0.26058 9.39633 -1.58433 0.51659 29.8236 6.51843 -3.00422 -11.4281 0.690818 1.16803e-007 7.47049 6.44171e-007 0.948014 19.1144 -0.0564443 -6.11406 27.2248 4.23427 -1.96452 7.32629 3.42623 -10.4566 2.3285 -0.910794 -13.8133 -78.4838 27.5888 -3.86856 -25.191 -1.74633 -4.86683 -2.24737 72.6819 -1.04759 -20.6242 1.75213 -5.60912 7.79077 -0.654237 6.64893 27.3161 3.27471 -2.94784 5.93879 -4.20517 10.8584 2.41798 -0.945791 30.0465 -72.1103 -22.9431 3.77631 -24.5904 -1.70468 9.34143 -5.09407 -37.9577 1.01026 -21.1231 1.74131 16.9089 -6.31647 2.2867 9 -3.38008e-006 -5.22997e-009 11.7756 -15.8544 10.6291 -0.575 -51.431 3.90177 -2.84873 50.4289 -12.7112 2.13082e-007 -43.5882 -3.90177 20.4143 -18.6461 1.26005 
40.9665 88.6147 -18.0046 0.0532326 -8.69409 -1.73826 -9 6.86154e-007 -3.19544e-009 -11.1804 -17.6739 -12.1952 0.575 -51.4311 3.90177 -13.028 50.0417 15.6455 -7.46079e-007 -43.5882 -3.90177 -11.6158 -19.809 -0.709657 1.23234e-007 14.8421 1.27319e-009 -0.256817 9.43196 -1.63154 0.51659 29.8236 6.51843 -3.11994 -11.3459 0.718123 1.16803e-007 7.47049 6.44171e-007 1.38818 19.1356 -0.206411 -6.11406 27.2248 4.23427 -1.96452 7.32629 3.42623 -10.4566 2.3285 -0.910794 -13.8549 -78.4565 27.3783 -3.86856 -25.191 -1.74633 -5.05254 -2.23903 72.8643 -1.04759 -20.6242 1.75213 -5.18891 7.47155 -0.624162 6.64893 27.3161 3.27471 -2.94784 5.93879 -4.20517 10.8584 2.41798 -0.945791 30.1597 -72.1373 -23.638 3.77631 -24.5904 -1.70468 9.20551 -5.10846 -37.3215 1.01026 -21.1231 1.74131 17.2149 -6.06148 2.31988 9 -3.38008e-006 -5.22997e-009 11.7854 -15.9045 10.6264 -0.575 -51.431 3.90177 -2.89005 50.5158 -12.7768 2.13082e-007 -43.5882 -3.90177 20.4138 -18.5967 1.25094 
40.9602 88.5888 -18.0177 -0.0639929 -8.83007 -1.72647 -9 6.86154e-007 -3.19544e-009 -10.9788 -17.5479 -12.031 0.575 -51.4311 3.90177 -13.1155 50.0427 15.5667 -7.46079e-007 -43.5882 -3.90177 -11.5763 -19.816 -0.706843 1.23234e-007 14.8421 1.27319e-009 -0.0758398 9.58901 -1.67691 0.51659 29.8236 6.51843 -3.27125 -11.2271 0.687094 1.16803e-007 7.47049 6.44171e-007 1.63371 18.9681 -0.351131 -6.11406 27.2248 4.23427 -1.96452 7.32629 3.42623 -10.4566 2.3285 -0.910794 -13.9225 -78.5273 27.4187 -3.86856 -25.191 -1.74633 -5.05154 -2.24991 72.8849 -1.04759 -20.6242 1.75213 -5.29944 7.51478 -0.631639 6.64893 27.3161 3.27471 -2.94784 5.93879 -4.20517 10.8584 2.41798 -0.945791 30.2951 -72.139 -24.2065 3.77631 -24.5904 -1.70468 9.181 -4.99224 -36.5333 1.01026 -21.1231 1.74131 17.5875 -6.20271 2.39904 9 -3.38008e-006 -5.22997e-009 11.9487 -15.8147 10.7105 -0.575 -51.431 3.90177 -2.90345 50.606 -12.7962 2.13082e-007 -43.5882 -3.90177 20.488 -18.69 1.27316 
40.9948 88.5567 -18.0516 -0.0111762 -8.88246 -1.75915 -9 6.86154e-007 -3.19544e-009 -11.1127 -17.5722 -12.1171 0.575 -51.4311 3.90177 -13.0992 50.1344 15.6845 -7.46079e-007 -43.5882 -3.90177 -11.6062 -19.8179 -0.709629 1.23234e-007 14.8421 1.27319e-009 -0.119843 9.6585 -1.63791 0.51659 29.8236 6.51843 -3.37341 -10.8805 0.63944 1.16803e-007 7.47049 6.44171e-007 1.80437 18.7225 -0.476304 -6.11406 27.2248 4.23427 -1.96452 7.32629 3.42623 -10.4566 2.3285 -0.910794 -13.9473 -78.5638 27.4844 -3.86856 -25.191 -1.74633 -5.0587 -2.19849 72.614 -1.04759 -20.6242 1.75213 -5.24809 7.50591 -0.628744 6.64893 27.3161 3.27471 -2.94784 5.93879 -4.20517 10.8584 2.41798 -0.945791 30.1838 -72.3182 -24.3803 3.77631 -24.5904 -1.70468 9.22466 -4.75333 -36.3816 1.01026 -21.1231 1.74131 17.7266 -6.32619 2.43522 9 -3.38008e-006 -5.22997e-009 11.9022 -15.8002 10.7417 -0.575 -51.431 3.90177 -2.95652 50.671 -12.7249 2.13082e-007 -43.5882 -3.90177 20.5046 -18.7335 1.28229 
41.0239 88.5232 -18.0727 0.0175478 -8.89899 -1.77237 -9 6.86154e-007 -3.19544e-009 -11.1543 -17.5984 -12.1123 0.575 -51.4311 3.90177 -13.1428 50.1851 15.7257 -7.46079e-007 -43.5882 -3.90177 -11.6387 -19.8756 -0.717766 1.23234e-007 14.8421 1.27319e-009 -0.145387 9.56094 -1.62462 0.51659 29.8236 6.51843 -3.0246 -10.9668 0.626842 1.16803e-007 7.47049 6.44171e-007 1.21486 18.4659 -0.206339 -6.11406 27.2248 4.23427 -1.96452 7.32629 3.42623 -10.4566 2.3285 -0.910794 -14.2256 -78.3998 27.0697 -3.86856 -25.191 -1.74633 -5.05085 -2.35018 72.2363 -1.04759 -20.6242 1.75213 -6.00097 7.73077 -0.67418 6.64893 27.3161 3.27471 -2.94784 5.93879 -4.20517 10.8584 2.41798 -0.945791 29.5103 -72.2928 -23.7506 3.77631 -24.5904 -1.70468 9.59466 -5.04713 -37.165 1.01026 -21.1231 1.74131 16.6262 -6.79393 2.27313 9 -3.38008e-006 -5.22996e-009 11.851 -15.8396 10.6979 -0.575 -51.431 3.90177 -2.95591 50.7525 -12.7077 2.13082e-007 -43.5882 -3.90177 20.4959 -18.7063 1.27668 
